<svg version="1" xmlns="http://www.w3.org/2000/svg" width="682.667" height="682.667" viewBox="0 0 512.000000 512.000000"><path d="M236.8 19.5c-.2.2-3 .6-6.3 1-14.5 1.6-21.7 2.9-35.1 6.4-78.8 20.8-142.3 81.9-165.9 159.8-1.9 6.2-3.7 12.4-3.9 13.8-.3 1.4-.7 3.3-1 4.3-.9 2.9-2.9 15.3-4.3 25.7-1 7.9-1 41.2 0 50 .7 6.5 3.1 21.5 4.1 26 16.8 75.8 69.9 139.2 141.2 168.4 10.9 4.5 31.7 11.2 39.2 12.6 1.5.3 5.2.9 8.2 1.5 3 .6 6.5 1.2 7.7 1.4 14.1 2.8 56.1 2.8 70.7 0 1.2-.2 3.2-.6 4.6-.9 1.4-.2 3.9-.7 5.6-1 7.4-1.2 26.7-6.6 35.9-10 62.6-23.4 111.4-70.1 137.3-131.5 6.9-16.5 14-41.9 15.7-56.5.3-2.8 1-7.7 1.4-11 .9-6.2.7-44.4-.3-50.5-.3-1.9-1-6.4-1.6-10-2.6-16.8-9-39.9-14.7-53-6.7-15.3-14.7-30.4-21.8-41-25.6-38.5-63.4-69.7-106-87.5-17.9-7.5-43-14.5-58-16.1-3.2-.3-6.8-.8-7.9-1.1-2.2-.6-44.2-1.3-44.8-.8z"/></svg>